<svg width="24" height="24" viewBox="0 0 24 24" fill="none" xmlns="http://www.w3.org/2000/svg">
<path d="M5.75 3C5.02065 3 4.32118 3.28973 3.80546 3.80546C3.28973 4.32118 3 5.02065 3 5.75V18.25C3 18.9793 3.28973 19.6788 3.80546 20.1945C4.32118 20.7103 5.02065 21 5.75 21H12.022C11.7223 20.5325 11.484 20.0284 11.313 19.5H5.75C5.06 19.5 4.5 18.94 4.5 18.25V5.75C4.5 5.06 5.06 4.5 5.75 4.5H18.25C18.94 4.5 19.5 5.06 19.5 5.75V11.313C20.0284 11.484 20.5325 11.7223 21 12.022V5.75C21 5.02065 20.7103 4.32118 20.1945 3.80546C19.6788 3.28973 18.9793 3 18.25 3H5.75Z" fill="currentColor"/>
<path d="M17.957 11.016C18 10.9024 18.0147 10.7801 17.9999 10.6596C17.985 10.5391 17.9412 10.424 17.872 10.3243C17.8028 10.2245 17.7104 10.143 17.6028 10.0869C17.4951 10.0307 17.3754 10.0016 17.254 10.002H12.25C12.0511 10.002 11.8603 10.081 11.7197 10.2217C11.579 10.3623 11.5 10.5531 11.5 10.752C11.5 10.9509 11.579 11.1417 11.7197 11.2823C11.8603 11.423 12.0511 11.502 12.25 11.502H14.992C15.9286 11.1099 16.9442 10.9435 17.957 11.016Z" fill="currentColor"/>
<path d="M8.25 8.502C7.65326 8.502 7.08097 8.73905 6.65901 9.16101C6.23705 9.58297 6 10.1553 6 10.752C6 11.3487 6.23705 11.921 6.65901 12.343C7.08097 12.7649 7.65326 13.002 8.25 13.002C8.84674 13.002 9.41903 12.7649 9.84099 12.343C10.2629 11.921 10.5 11.3487 10.5 10.752C10.5 10.1553 10.2629 9.58297 9.84099 9.16101C9.41903 8.73905 8.84674 8.502 8.25 8.502ZM7.5 10.752C7.5 10.5531 7.57902 10.3623 7.71967 10.2217C7.86032 10.081 8.05109 10.002 8.25 10.002C8.44891 10.002 8.63968 10.081 8.78033 10.2217C8.92098 10.3623 9 10.5531 9 10.752C9 10.9509 8.92098 11.1417 8.78033 11.2823C8.63968 11.423 8.44891 11.502 8.25 11.502C8.05109 11.502 7.86032 11.423 7.71967 11.2823C7.57902 11.1417 7.5 10.9509 7.5 10.752Z" fill="currentColor"/>
<path d="M6 16.25C6 15.9545 6.0582 15.6619 6.17127 15.389C6.28434 15.116 6.45008 14.8679 6.65901 14.659C6.86794 14.4501 7.11598 14.2843 7.38896 14.1713C7.66194 14.0582 7.95453 14 8.25 14C8.54547 14 8.83806 14.0582 9.11104 14.1713C9.38402 14.2843 9.63206 14.4501 9.84099 14.659C10.0499 14.8679 10.2157 15.116 10.3287 15.389C10.4418 15.6619 10.5 15.9545 10.5 16.25C10.5 16.8467 10.2629 17.419 9.84099 17.841C9.41903 18.2629 8.84674 18.5 8.25 18.5C7.65326 18.5 7.08097 18.2629 6.65901 17.841C6.23705 17.419 6 16.8467 6 16.25ZM8.25 15.5C8.05109 15.5 7.86032 15.579 7.71967 15.7197C7.57902 15.8603 7.5 16.0511 7.5 16.25C7.5 16.4489 7.57902 16.6397 7.71967 16.7803C7.86032 16.921 8.05109 17 8.25 17C8.44891 17 8.63968 16.921 8.78033 16.7803C8.92098 16.6397 9 16.4489 9 16.25C9 16.0511 8.92098 15.8603 8.78033 15.7197C8.63968 15.579 8.44891 15.5 8.25 15.5Z" fill="currentColor"/>
<path d="M17.254 7.5H6.754C6.55509 7.5 6.36432 7.42098 6.22367 7.28033C6.08302 7.13968 6.004 6.94891 6.004 6.75C6.004 6.55109 6.08302 6.36032 6.22367 6.21967C6.36432 6.07902 6.55509 6 6.754 6H17.254C17.4529 6 17.6437 6.07902 17.7843 6.21967C17.925 6.36032 18.004 6.55109 18.004 6.75C18.004 6.94891 17.925 7.13968 17.7843 7.28033C17.6437 7.42098 17.4529 7.5 17.254 7.5Z" fill="currentColor"/>
<path d="M23 17.5C23 16.0413 22.4205 14.6424 21.3891 13.6109C20.3576 12.5795 18.9587 12 17.5 12C16.0413 12 14.6424 12.5795 13.6109 13.6109C12.5795 14.6424 12 16.0413 12 17.5C12 18.9587 12.5795 20.3576 13.6109 21.3891C14.6424 22.4205 16.0413 23 17.5 23C18.9587 23 20.3576 22.4205 21.3891 21.3891C22.4205 20.3576 23 18.9587 23 17.5ZM18.001 20.503C18.001 20.6356 17.9483 20.7628 17.8546 20.8566C17.7608 20.9503 17.6336 21.003 17.501 21.003C17.3684 21.003 17.2412 20.9503 17.1474 20.8566C17.0537 20.7628 17.001 20.6356 17.001 20.503V18H14.496C14.3634 18 14.2362 17.9473 14.1424 17.8536C14.0487 17.7598 13.996 17.6326 13.996 17.5C13.996 17.3674 14.0487 17.2402 14.1424 17.1464C14.2362 17.0527 14.3634 17 14.496 17H17V14.5C17 14.3674 17.0527 14.2402 17.1464 14.1464C17.2402 14.0527 17.3674 14 17.5 14C17.6326 14 17.7598 14.0527 17.8536 14.1464C17.9473 14.2402 18 14.3674 18 14.5V17H20.503C20.6356 17 20.7628 17.0527 20.8566 17.1464C20.9503 17.2402 21.003 17.3674 21.003 17.5C21.003 17.6326 20.9503 17.7598 20.8566 17.8536C20.7628 17.9473 20.6356 18 20.503 18H18.001V20.503Z" fill="currentColor"/>
</svg>
