<svg width="24" height="24" viewBox="0 0 24 24" fill="none" xmlns="http://www.w3.org/2000/svg">
<path d="M16.5 15V9.1305C16.5 8.72214 16.4167 8.31807 16.2551 7.94305C16.0935 7.56802 15.8571 7.22994 15.5602 6.9495L10.0305 1.7235C9.752 1.46019 9.38327 1.31348 9 1.31348C8.61673 1.31348 8.248 1.46019 7.9695 1.7235L2.43975 6.9495C2.14292 7.22994 1.90646 7.56802 1.74487 7.94305C1.58328 8.31807 1.49996 8.72214 1.5 9.1305V15C1.5 15.3978 1.65804 15.7794 1.93934 16.0607C2.22064 16.342 2.60218 16.5 3 16.5H15C15.3978 16.5 15.7794 16.342 16.0607 16.0607C16.342 15.7794 16.5 15.3978 16.5 15Z" stroke="#025D73" stroke-width="2" stroke-linecap="round" stroke-linejoin="round"/>
</svg>
