<svg width="440" height="74" viewBox="0 0 440 74" fill="none" xmlns="http://www.w3.org/2000/svg">
<path d="M50.25 11.2188H31.5V71.875H19.4062V11.2188H0.65625V0.34375H50.25V11.2188Z" fill="currentColor"/>
<path d="M67.5938 71.875H55.5V0.34375H67.5938V71.875Z" fill="currentColor"/>
<path d="M138.094 71.875H126.75V25.9375L111.844 71.875H102.656L87.8438 25.9375V71.875H76.4062V0.34375H90.375L107.344 53.0312L124.125 0.34375H138.094V71.875Z" fill="currentColor"/>
<path d="M186.188 71.875H146.625V0.34375H185.438V11.2188H158.719V29.2188H184.219V40H158.719V61.0938H186.188V71.875Z" fill="currentColor"/>
<path d="M199.875 68.5938C200 67.9688 200.781 67.375 202.219 66.8125C203.656 66.25 205.438 65.6562 207.562 65.0312C209.688 64.4062 212.031 63.7188 214.594 62.9688C217.156 62.2188 219.625 61.375 222 60.4375C224.375 59.5 226.531 58.4375 228.469 57.25C230.469 56.0625 231.938 54.6875 232.875 53.125C232.875 52.1875 232.25 51.4688 231 50.9688C229.812 50.4688 228.188 50.0625 226.125 49.75C224.125 49.375 221.812 49.0938 219.188 48.9062C216.625 48.6562 213.969 48.3438 211.219 47.9688C208.531 47.5312 205.875 47.0312 203.25 46.4688C200.688 45.8438 198.375 45 196.312 43.9375C194.312 42.8125 192.688 41.4062 191.438 39.7188C190.25 38.0312 189.656 35.9688 189.656 33.5312C189.656 31.0938 190.188 28.6875 191.25 26.3125C192.312 23.875 193.719 21.5312 195.469 19.2812C197.281 17.0312 199.312 14.9375 201.562 13C203.875 11.0625 206.281 9.375 208.781 7.9375C211.281 6.5 213.75 5.375 216.188 4.5625C218.688 3.75 221 3.34375 223.125 3.34375C223.688 3.34375 224.281 3.34375 224.906 3.34375C225.531 3.28125 226.062 3.3125 226.5 3.4375C227 3.5 227.406 3.71875 227.719 4.09375C228.031 4.46875 228.188 5.03125 228.188 5.78125C228.188 7.59375 227.594 8.90625 226.406 9.71875C225.219 10.4688 223.781 10.8438 222.094 10.8438L218.438 8.21875C217 8.21875 215.406 8.625 213.656 9.4375C211.969 10.25 210.219 11.3438 208.406 12.7188C206.656 14.0312 204.938 15.5625 203.25 17.3125C201.562 19.0625 200.062 20.875 198.75 22.75C197.5 24.625 196.469 26.5 195.656 28.375C194.906 30.25 194.531 31.9375 194.531 33.4375C194.531 35.625 195.125 37.4062 196.312 38.7812C197.562 40.0938 199.188 41.1562 201.188 41.9688C203.25 42.7188 205.594 43.2812 208.219 43.6562C210.844 44.0312 213.5 44.3438 216.188 44.5938C218.875 44.8438 221.531 45.0938 224.156 45.3438C226.781 45.5312 229.094 45.9062 231.094 46.4688C233.156 47.0312 234.781 47.7812 235.969 48.7188C237.219 49.6562 237.844 50.9375 237.844 52.5625C238.531 53.5625 238.375 54.7188 237.375 56.0312C236.438 57.2812 234.938 58.5625 232.875 59.875C230.875 61.125 228.469 62.4062 225.656 63.7188C222.906 64.9688 220.062 66.125 217.125 67.1875C214.188 68.1875 211.344 69.0625 208.594 69.8125C205.844 70.5 203.5 70.9375 201.562 71.125C201 71.125 200.5 70.9375 200.062 70.5625C199.688 70.1875 199.625 69.5312 199.875 68.5938Z" fill="currentColor"/>
<path d="M271.031 40.5625C270.344 41.0625 269.125 41.8125 267.375 42.8125C265.688 43.75 263.875 44.7812 261.938 45.9062C260 47.0312 258.156 48.125 256.406 49.1875C254.656 50.1875 253.438 50.9375 252.75 51.4375C251.375 52.5 250.438 53.7188 249.938 55.0938C249.438 56.4688 249.188 57.9688 249.188 59.5938C249.188 61.1562 249.344 62.8125 249.656 64.5625C249.969 66.25 250.188 67.9688 250.312 69.7188C250.312 70.5938 250.031 71.4062 249.469 72.1562C248.906 72.9062 248.188 73.2812 247.312 73.2812C246.938 73.2812 246.531 73.1875 246.094 73C245.656 72.75 245.438 72.4062 245.438 71.9688L243.281 11.875C243.281 11.5 243.406 11 243.656 10.375C243.969 9.75 244.219 9.40625 244.406 9.34375C244.594 9.34375 244.844 9.375 245.156 9.4375C245.531 9.5 245.906 9.625 246.281 9.8125C246.656 9.9375 247 10.0938 247.312 10.2812C247.688 10.4062 247.938 10.5312 248.062 10.6562C248.312 13.1562 248.469 16.0312 248.531 19.2812C248.594 22.5312 248.656 25.8125 248.719 29.125C248.844 32.4375 249 35.6562 249.188 38.7812C249.438 41.8438 249.844 44.4375 250.406 46.5625C253.094 45.4375 255.625 44.375 258 43.375C260.375 42.375 262.438 41.2188 264.188 39.9062C265.938 38.5938 267.312 37 268.312 35.125C269.312 33.1875 269.781 30.7812 269.719 27.9062C269.719 26.3438 269.688 24.9688 269.625 23.7812C269.562 22.5938 269.438 21.4375 269.25 20.3125C269.062 19.125 268.781 17.875 268.406 16.5625C268.094 15.1875 267.688 13.625 267.188 11.875C267.062 10.75 267.25 10.0312 267.75 9.71875C268.25 9.40625 268.844 9.25 269.531 9.25C270.344 9.25 270.969 9.4375 271.406 9.8125C271.844 10.1875 272.188 10.6875 272.438 11.3125C272.75 11.9375 272.938 12.625 273 13.375C273.062 14.0625 273.125 14.7188 273.188 15.3438C273.312 16.3438 273.469 17.8438 273.656 19.8438C273.844 21.8438 274.031 24.125 274.219 26.6875C274.469 29.1875 274.719 31.8438 274.969 34.6562C275.281 37.4688 275.562 40.125 275.812 42.625C276.062 45.125 276.25 47.375 276.375 49.375C276.562 51.375 276.719 52.875 276.844 53.875C277.031 56.25 277.281 58.5938 277.594 60.9062C277.906 63.2188 278.062 65.5938 278.062 68.0312V69.5312C278.062 70.0312 278 70.5312 277.875 71.0312C277.812 71.4688 277.594 71.875 277.219 72.25C276.906 72.5625 276.375 72.8125 275.625 73C274.5 72.1875 273.844 71.2812 273.656 70.2812C273.469 69.2812 273.312 68.1875 273.188 67C273.125 66.3125 273.062 65.2812 273 63.9062C272.938 62.4688 272.812 60.9062 272.625 59.2188C272.5 57.4688 272.344 55.6562 272.156 53.7812C272.031 51.8438 271.875 50.0312 271.688 48.3438C271.562 46.5938 271.438 45.0312 271.312 43.6562C271.188 42.2812 271.094 41.25 271.031 40.5625Z" fill="currentColor"/>
<path d="M288 70.5625C288 65.5 288.031 60.5312 288.094 55.6562C288.156 50.7812 288.125 45.9375 288 41.125C287.875 36.3125 287.625 31.5 287.25 26.6875C286.875 21.8125 286.312 16.875 285.562 11.875C285.562 11.75 285.469 11.5 285.281 11.125C285.156 10.75 285.031 10.375 284.906 10C284.781 9.5625 284.656 9.1875 284.531 8.875C284.406 8.5625 284.344 8.34375 284.344 8.21875C284.344 7.90625 284.438 7.53125 284.625 7.09375C284.875 6.65625 285.156 6.25 285.469 5.875C285.844 5.4375 286.25 5.09375 286.688 4.84375C287.125 4.59375 287.562 4.5 288 4.5625C288.75 4.75 289.344 5.21875 289.781 5.96875C290.281 6.71875 290.656 7.5625 290.906 8.5C291.156 9.375 291.312 10.25 291.375 11.125C291.5 12 291.562 12.625 291.562 13C293.438 12 295.531 10.9375 297.844 9.8125C300.219 8.625 302.625 7.5625 305.062 6.625C307.562 5.625 310.031 4.8125 312.469 4.1875C314.969 3.5 317.312 3.15625 319.5 3.15625C319.5 3.71875 319.375 4.21875 319.125 4.65625C318.938 5.09375 318.531 5.46875 317.906 5.78125L291.562 19V22.6562C291.625 23.3438 291.688 24.5312 291.75 26.2188C291.875 27.9062 292 29.7188 292.125 31.6562C292.25 33.5312 292.344 35.3438 292.406 37.0938C292.531 38.7812 292.625 39.9375 292.688 40.5625L312 29.7812L312.469 29.2188C312.781 28.8438 313.188 28.5 313.688 28.1875C314.188 27.875 314.688 27.7188 315.188 27.7188C315.75 27.6562 316.281 27.9688 316.781 28.6562C316.781 29.7812 316.219 30.875 315.094 31.9375C313.969 33 312.562 34.0625 310.875 35.125C309.188 36.1875 307.344 37.2188 305.344 38.2188C303.406 39.2188 301.594 40.1875 299.906 41.125C298.219 42.0625 296.812 43 295.688 43.9375C294.562 44.875 294 45.75 294 46.5625V64.6562C294.812 64.9688 295.938 64.8438 297.375 64.2812C298.875 63.6562 300.531 62.8125 302.344 61.75C304.156 60.6875 306.031 59.4688 307.969 58.0938C309.906 56.6562 311.781 55.3125 313.594 54.0625C315.469 52.8125 317.188 51.6875 318.75 50.6875C320.375 49.6875 321.719 49.0938 322.781 48.9062C323.406 48.9062 323.969 49.0312 324.469 49.2812C324.969 49.5312 325.219 50.0312 325.219 50.7812C325.219 51.5312 324.781 52.125 323.906 52.5625C321.719 53.875 319.188 55.5312 316.312 57.5312C313.5 59.4688 310.625 61.4375 307.688 63.4375C304.75 65.375 301.844 67.1562 298.969 68.7812C296.156 70.3438 293.719 71.375 291.656 71.875C290.844 71.875 290.188 71.8125 289.688 71.6875C289.188 71.5625 288.625 71.1875 288 70.5625Z" fill="currentColor"/>
<path d="M333.562 70.5625C333.562 65.5 333.594 60.5312 333.656 55.6562C333.719 50.7812 333.688 45.9375 333.562 41.125C333.438 36.3125 333.188 31.5 332.812 26.6875C332.438 21.8125 331.875 16.875 331.125 11.875C331.125 11.75 331.031 11.5 330.844 11.125C330.719 10.75 330.594 10.375 330.469 10C330.344 9.5625 330.219 9.1875 330.094 8.875C329.969 8.5625 329.906 8.34375 329.906 8.21875C329.906 7.90625 330 7.53125 330.188 7.09375C330.438 6.65625 330.719 6.25 331.031 5.875C331.406 5.4375 331.812 5.09375 332.25 4.84375C332.688 4.59375 333.125 4.5 333.562 4.5625C334.312 4.75 334.906 5.21875 335.344 5.96875C335.844 6.71875 336.219 7.5625 336.469 8.5C336.719 9.375 336.875 10.25 336.938 11.125C337.062 12 337.125 12.625 337.125 13C339 12 341.094 10.9375 343.406 9.8125C345.781 8.625 348.188 7.5625 350.625 6.625C353.125 5.625 355.594 4.8125 358.031 4.1875C360.531 3.5 362.875 3.15625 365.062 3.15625C365.062 3.71875 364.938 4.21875 364.688 4.65625C364.5 5.09375 364.094 5.46875 363.469 5.78125L337.125 19V22.6562C337.188 23.3438 337.25 24.5312 337.312 26.2188C337.438 27.9062 337.562 29.7188 337.688 31.6562C337.812 33.5312 337.906 35.3438 337.969 37.0938C338.094 38.7812 338.188 39.9375 338.25 40.5625L357.562 29.7812L358.031 29.2188C358.344 28.8438 358.75 28.5 359.25 28.1875C359.75 27.875 360.25 27.7188 360.75 27.7188C361.312 27.6562 361.844 27.9688 362.344 28.6562C362.344 29.7812 361.781 30.875 360.656 31.9375C359.531 33 358.125 34.0625 356.438 35.125C354.75 36.1875 352.906 37.2188 350.906 38.2188C348.969 39.2188 347.156 40.1875 345.469 41.125C343.781 42.0625 342.375 43 341.25 43.9375C340.125 44.875 339.562 45.75 339.562 46.5625V64.6562C340.375 64.9688 341.5 64.8438 342.938 64.2812C344.438 63.6562 346.094 62.8125 347.906 61.75C349.719 60.6875 351.594 59.4688 353.531 58.0938C355.469 56.6562 357.344 55.3125 359.156 54.0625C361.031 52.8125 362.75 51.6875 364.312 50.6875C365.938 49.6875 367.281 49.0938 368.344 48.9062C368.969 48.9062 369.531 49.0312 370.031 49.2812C370.531 49.5312 370.781 50.0312 370.781 50.7812C370.781 51.5312 370.344 52.125 369.469 52.5625C367.281 53.875 364.75 55.5312 361.875 57.5312C359.062 59.4688 356.188 61.4375 353.25 63.4375C350.312 65.375 347.406 67.1562 344.531 68.7812C341.719 70.3438 339.281 71.375 337.219 71.875C336.406 71.875 335.75 71.8125 335.25 71.6875C334.75 71.5625 334.188 71.1875 333.562 70.5625Z" fill="currentColor"/>
<path d="M400.594 14.2188C398.594 14.2188 396.562 14.4062 394.5 14.7812C392.5 15.1562 390.5 15.5938 388.5 16.0938C386.5 16.5312 384.5 16.9375 382.5 17.3125C380.5 17.6875 378.469 17.875 376.406 17.875C375.781 17.875 375.125 17.8125 374.438 17.6875C373.812 17.5 373.5 16.9375 373.5 16C373.5 15.375 373.75 14.75 374.25 14.125C374.812 13.4375 375.406 13.0625 376.031 13L401.156 9.34375C401.219 9.09375 401.312 8.71875 401.438 8.21875C401.562 7.65625 401.719 7.125 401.906 6.625C402.156 6.0625 402.469 5.59375 402.844 5.21875C403.219 4.78125 403.656 4.5625 404.156 4.5625C404.906 4.5625 405.5 4.75 405.938 5.125C406.375 5.5 406.75 5.9375 407.062 6.4375C407.375 6.875 407.656 7.28125 407.906 7.65625C408.156 8.03125 408.469 8.21875 408.844 8.21875H409.594C410.219 8.15625 411.219 8.0625 412.594 7.9375C413.969 7.75 415.531 7.5625 417.281 7.375C419.094 7.1875 421 7 423 6.8125C425 6.5625 426.906 6.375 428.719 6.25C430.531 6.0625 432.125 5.90625 433.5 5.78125C434.875 5.59375 435.875 5.4375 436.5 5.3125C436.688 5.3125 437.125 5.3125 437.812 5.3125C438.562 5.25 439.094 5.21875 439.406 5.21875C439.406 6.40625 438.75 7.40625 437.438 8.21875C436.188 8.96875 434.562 9.625 432.562 10.1875C430.625 10.6875 428.438 11.0938 426 11.4062C423.625 11.6562 421.281 11.875 418.969 12.0625C416.719 12.25 414.625 12.4062 412.688 12.5312C410.812 12.6562 409.375 12.8125 408.375 13C408.125 17.4375 408.219 22.0625 408.656 26.875C409.156 31.6875 409.75 36.5312 410.438 41.4062C411.188 46.2812 411.875 51.125 412.5 55.9375C413.125 60.75 413.438 65.3438 413.438 69.7188C413.688 70.5938 413.781 71.2812 413.719 71.7812C413.719 72.2812 413.562 72.625 413.25 72.8125C412.938 73 412.469 73.0938 411.844 73.0938C411.219 73.0938 410.469 73.0625 409.594 73C408.969 70.75 408.406 68.125 407.906 65.125C407.469 62.0625 407.062 58.8125 406.688 55.375C406.312 51.875 405.938 48.2812 405.562 44.5938C405.25 40.9062 404.938 37.25 404.625 33.625C404.312 30 403.969 26.5312 403.594 23.2188C403.219 19.9062 402.781 16.9062 402.281 14.2188H400.594Z" fill="currentColor"/>
</svg>
